<?xml version="1.0" encoding="UTF-8" standalone="no"?>
<!-- Created with Inkscape (http://www.inkscape.org/) -->

<svg
   xmlns:dc="http://purl.org/dc/elements/1.1/"
   xmlns:cc="http://creativecommons.org/ns#"
   xmlns:rdf="http://www.w3.org/1999/02/22-rdf-syntax-ns#"
   xmlns:svg="http://www.w3.org/2000/svg"
   xmlns="http://www.w3.org/2000/svg"
   xmlns:sodipodi="http://sodipodi.sourceforge.net/DTD/sodipodi-0.dtd"
   xmlns:inkscape="http://www.inkscape.org/namespaces/inkscape"
   width="36.740002"
   height="41.740002"
   id="svg3938"
   version="1.1"
   inkscape:version="0.48.3.1 r9886"
   inkscape:export-filename="/home/antonius/Programmieren/ld/Lang/play_highlighted.png"
   inkscape:export-xdpi="981"
   inkscape:export-ydpi="981"
   sodipodi:docname="menu.svg">
  <defs
     id="defs3940">
    <filter
       inkscape:collect="always"
       id="filter3853-1"
       x="-0.114"
       width="1.228"
       y="-0.057"
       height="1.114"
       color-interpolation-filters="sRGB">
      <feGaussianBlur
         inkscape:collect="always"
         stdDeviation="0.2375"
         id="feGaussianBlur3855-7" />
    </filter>
    <filter
       inkscape:collect="always"
       id="filter3853-1-7"
       x="-0.114"
       width="1.228"
       y="-0.057"
       height="1.114"
       color-interpolation-filters="sRGB">
      <feGaussianBlur
         inkscape:collect="always"
         stdDeviation="0.2375"
         id="feGaussianBlur3855-7-0" />
    </filter>
    <filter
       inkscape:collect="always"
       id="filter3853-1-8"
       x="-0.114"
       width="1.228"
       y="-0.057"
       height="1.114"
       color-interpolation-filters="sRGB">
      <feGaussianBlur
         inkscape:collect="always"
         stdDeviation="0.2375"
         id="feGaussianBlur3855-7-5" />
    </filter>
  </defs>
  <sodipodi:namedview
     id="base"
     pagecolor="#ffffff"
     bordercolor="#666666"
     borderopacity="1.0"
     inkscape:pageopacity="0.0"
     inkscape:pageshadow="2"
     inkscape:zoom="7.9195959"
     inkscape:cx="25.64953"
     inkscape:cy="28.989368"
     inkscape:document-units="px"
     inkscape:current-layer="layer1"
     showgrid="false"
     fit-margin-top="0"
     fit-margin-left="0"
     fit-margin-right="0"
     fit-margin-bottom="0"
     inkscape:window-width="1680"
     inkscape:window-height="1000"
     inkscape:window-x="0"
     inkscape:window-y="0"
     inkscape:window-maximized="1">
    <inkscape:grid
       type="xygrid"
       id="grid3946"
       empspacing="5"
       visible="true"
       enabled="true"
       snapvisiblegridlinesonly="true"
       originx="-264.13px"
       originy="-494.13px" />
  </sodipodi:namedview>
  <metadata
     id="metadata3943">
    <rdf:RDF>
      <cc:Work
         rdf:about="">
        <dc:format>image/svg+xml</dc:format>
        <dc:type
           rdf:resource="http://purl.org/dc/dcmitype/StillImage" />
        <dc:title></dc:title>
      </cc:Work>
    </rdf:RDF>
  </metadata>
  <g
     inkscape:label="Layer 1"
     inkscape:groupmode="layer"
     id="layer1"
     transform="translate(-264.13,-516.49218)">
    <path
       id="path3956"
       style="color:#000000;fill:none;stroke:#97ff02;stroke-width:0.60000002;stroke-linecap:round;stroke-linejoin:round;stroke-miterlimit:4;stroke-opacity:1;stroke-dasharray:none;stroke-dashoffset:0;marker:none;visibility:visible;display:inline;overflow:visible;filter:url(#filter3853-1);enable-background:accumulate"
       d="m 300,532.36218 0,10 -5,0 m 0,-10 0,5 5,0 m -15,-5 5,0 0,10 -5,0 0,-5 5,0 m -15,-5 0,10 5,0 m -15,-5 5,0 0,-5 c 0,0 -5,0 -5,0 l 0,10" />
    <path
       id="path3991"
       style="color:#000000;fill:none;stroke:#00b2bd;stroke-width:0.60000002;stroke-linecap:round;stroke-linejoin:round;stroke-miterlimit:4;stroke-opacity:1;stroke-dasharray:none;stroke-dashoffset:0;marker:none;visibility:visible;display:inline;overflow:visible;filter:url(#filter3853-1-7);enable-background:accumulate"
       d="m 300,517.36218 -5,0 0,10 5,0 0,-5 m -15,5 0,-10 5,0 0,10 m -10,-5 -5,0 0,5 5,0 0,-10 -5,0 m -10,0 0,10 5,0" />
    <path
       id="path4533"
       style="color:#000000;fill:none;stroke:#97ff02;stroke-width:0.60000002;stroke-linecap:round;stroke-linejoin:round;stroke-miterlimit:4;stroke-opacity:1;stroke-dasharray:none;stroke-dashoffset:0;marker:none;visibility:visible;display:inline;overflow:visible;filter:url(#filter3853-1-8);enable-background:accumulate"
       d="m 285,547.36218 0,10 m 10,-5 5,0 m -5,-5 0,10 5,0 m -25,0 5,-10 m -5,0 5,10 m -15,-5 5,0 0,-5 -5,0 0,10 5,0"
       inkscape:connector-curvature="0" />
  </g>
</svg>
